<svg width="64" height="64" viewBox="0 0 64 64" fill="none" xmlns="http://www.w3.org/2000/svg">
<path d="M32 4C16.5375 4 4 16.5375 4 32C4 47.4625 16.5375 60 32 60C47.4625 60 60 47.4625 60 32C60 16.5375 47.4625 4 32 4ZM32 55.25C19.1625 55.25 8.75 44.8375 8.75 32C8.75 19.1625 19.1625 8.75 32 8.75C44.8375 8.75 55.25 19.1625 55.25 32C55.25 44.8375 44.8375 55.25 32 55.25Z" fill="white"/>
<path d="M44.9625 31.1944L26.4563 17.7568C26.3078 17.648 26.1321 17.5826 25.9487 17.5678C25.7652 17.553 25.5813 17.5894 25.4173 17.673C25.2534 17.7566 25.1159 17.8841 25.0201 18.0412C24.9244 18.1984 24.8741 18.3791 24.875 18.5631V45.4382C24.875 46.2569 25.8 46.7194 26.4563 46.2444L44.9625 32.8069C45.0903 32.7148 45.1943 32.5937 45.2661 32.4535C45.3379 32.3133 45.3753 32.1581 45.3753 32.0006C45.3753 31.8432 45.3379 31.6879 45.2661 31.5477C45.1943 31.4076 45.0903 31.2864 44.9625 31.1944ZM28.8625 39.5694V24.4319L39.2813 32.0006L28.8625 39.5694Z" fill="white"/>
</svg>
